<?xml version="1.0" standalone="no"?>
<!DOCTYPE svg PUBLIC "-//W3C//DTD SVG 20010904//EN"
 "http://www.w3.org/TR/2001/REC-SVG-20010904/DTD/svg10.dtd">
<svg version="1.0" xmlns="http://www.w3.org/2000/svg"
 width="512.000000pt" height="512.000000pt" viewBox="0 0 512.000000 512.000000"
 preserveAspectRatio="xMidYMid meet">
<metadata>
Created by potrace 1.15, written by Peter Selinger 2001-2017
</metadata>
<g transform="translate(0.000000,512.000000) scale(0.100000,-0.100000)"
fill="#000000" stroke="none">
<path d="M590 3875 l0 -655 655 0 655 0 0 655 0 655 -655 0 -655 0 0 -655z
m1128 -2 l-3 -468 -467 -3 -468 -2 0 470 0 470 470 0 470 0 -2 -467z"/>
<path d="M965 4148 c-3 -8 -4 -135 -3 -283 l3 -270 283 -3 282 -2 -2 282 -3
283 -278 3 c-218 2 -279 0 -282 -10z"/>
<path d="M2470 4250 l0 -280 185 0 185 0 0 -95 0 -95 -375 0 -375 0 0 -375 0
-375 -185 0 -185 0 0 -95 0 -95 185 0 185 0 0 -185 0 -185 95 0 95 0 0 -95 0
-95 95 0 95 0 0 -95 0 -95 185 0 185 0 0 95 0 95 190 0 190 0 0 -95 0 -95 -95
0 -95 0 0 -95 0 -95 -190 0 -189 0 -3 -93 -3 -92 -180 0 -180 0 -3 188 -2 187
-95 0 -95 0 0 -185 0 -185 95 0 95 0 0 -95 0 -94 93 -3 92 -3 3 -187 2 -188
90 0 90 0 0 -95 0 -95 -90 0 -90 0 0 -90 0 -90 280 0 280 0 0 -95 0 -95 95 0
96 0 -3 93 -3 92 -92 3 -93 3 0 89 0 90 375 0 375 0 0 285 0 285 95 0 95 0 0
470 0 470 95 0 95 0 0 -95 0 -95 90 0 90 0 0 -190 0 -190 -90 0 -90 0 0 -375
0 -375 -95 0 -95 0 0 -95 0 -96 93 3 92 3 3 92 3 93 89 0 89 0 3 -92 3 -93 93
-3 92 -3 0 191 0 190 -95 0 -95 0 0 280 0 280 95 0 95 0 0 190 0 190 -95 0
-95 0 0 95 0 95 95 0 95 0 0 185 0 185 -95 0 -95 0 0 95 0 95 -185 0 -185 0 0
-95 0 -95 -95 0 -95 0 0 95 0 95 -280 0 -280 0 0 -95 0 -95 95 0 96 0 -3 -92
-3 -93 -92 -3 -93 -3 0 -89 0 -90 -190 0 -190 0 0 185 0 185 95 0 95 0 0 95 0
95 -280 0 -280 0 0 -95 0 -95 90 0 90 0 0 -185 0 -185 95 0 95 0 0 -95 0 -95
-185 0 -184 0 -3 93 -3 92 -92 3 -93 3 0 184 0 185 -95 0 -95 0 0 95 0 95 95
0 95 0 0 188 0 188 93 0 92 -1 3 -92 3 -93 89 0 90 0 0 185 0 185 190 0 190 0
0 190 0 190 -95 0 -95 0 0 95 0 95 95 0 95 0 0 185 0 185 -95 0 -95 0 0 -185
0 -185 -95 0 -95 0 0 185 0 185 -90 0 -90 0 0 -280z m1690 -1505 l0 -95 90 0
90 0 0 -90 0 -90 -90 0 -90 0 0 90 0 90 -95 0 -95 0 0 95 0 95 95 0 95 0 0
-95z m-380 -280 l0 -185 -95 0 -95 0 0 185 0 185 95 0 95 0 0 -185z m0 -470
l0 -95 -95 0 -95 0 0 95 0 95 95 0 95 0 0 -95z m-560 -280 l0 -185 -190 0
-190 0 0 -95 0 -95 95 0 95 0 0 -190 0 -190 -95 0 -95 0 0 95 0 95 -95 0 -95
0 0 285 0 285 190 0 190 0 0 90 0 90 95 0 95 0 0 -185z m370 -90 l0 -95 -95 0
-95 0 0 88 c0 49 3 92 7 95 3 4 46 7 95 7 l88 0 0 -95z"/>
<path d="M3220 3875 l0 -655 655 0 655 0 0 655 0 655 -655 0 -655 0 0 -655z
m1120 -5 l0 -470 -467 2 -468 3 -3 468 -2 467 470 0 470 0 0 -470z"/>
<path d="M3597 4153 c-4 -3 -7 -132 -7 -285 l0 -278 283 2 282 3 0 280 0 280
-276 3 c-151 1 -278 -1 -282 -5z"/>
<path d="M2090 4155 l0 -185 95 0 95 0 0 185 0 185 -95 0 -95 0 0 -185z"/>
<path d="M2840 3310 l0 -90 95 0 95 0 0 90 0 90 -95 0 -95 0 0 -90z"/>
<path d="M590 2750 l0 -280 95 0 95 0 0 -95 0 -95 -95 0 -95 0 0 -95 0 -95
185 0 185 0 0 95 0 95 95 0 95 0 0 -95 0 -95 95 0 95 0 0 95 0 95 95 0 95 0 0
95 0 95 185 0 185 0 0 90 0 89 -92 3 -93 3 -2 85 c-1 47 -2 88 -2 93 -1 4 -41
7 -91 7 l-90 0 0 -95 0 -95 -95 0 -95 0 0 190 0 190 -95 0 -95 0 0 -95 0 -95
-95 0 -95 0 0 95 0 95 -185 0 -185 0 0 -280z m372 -2 l3 -93 188 -3 187 -2 0
-90 0 -90 -280 0 -280 0 0 185 0 185 90 0 89 0 3 -92z"/>
<path d="M1720 2185 l0 -95 90 0 90 0 0 95 0 95 -90 0 -90 0 0 -95z"/>
<path d="M590 1245 l0 -655 655 0 655 0 0 655 0 655 -655 0 -655 0 0 -655z
m1128 3 l2 -468 -470 0 -470 0 0 470 0 470 468 -2 467 -3 3 -467z"/>
<path d="M965 1517 c-3 -7 -4 -134 -3 -282 l3 -270 280 0 280 0 3 283 2 282
-280 0 c-217 0 -282 -3 -285 -13z"/>
<path d="M2090 1245 l0 -95 95 0 95 0 0 95 0 95 -95 0 -95 0 0 -95z"/>
<path d="M2090 775 l0 -185 95 0 95 0 0 185 0 185 -95 0 -95 0 0 -185z"/>
<path d="M3597 774 c-4 -4 -7 -47 -7 -96 l0 -88 190 0 191 0 -3 93 -3 92 -181
3 c-99 1 -183 -1 -187 -4z"/>
<path d="M4160 685 l0 -95 90 0 90 0 0 95 0 95 -90 0 -90 0 0 -95z"/>
</g>
</svg>
